<svg width="36" height="36" viewBox="0 0 36 36" fill="none" xmlns="http://www.w3.org/2000/svg">
<path d="M13.5 4.5V1.5H10.5V4.5H4.5C3.67158 4.5 3 5.17158 3 6V30C3 30.8284 3.67158 31.5 4.5 31.5H31.5C32.3284 31.5 33 30.8284 33 30V6C33 5.17158 32.3284 4.5 31.5 4.5H25.5V1.5H22.5V4.5H13.5ZM6 12H30V28.5H6V12ZM14.8178 14.9465L17.9998 18.1287L21.1817 14.9465L23.3031 17.0677L20.1211 20.25L23.3029 23.4317L21.1818 25.5531L17.9998 22.3713L14.8177 25.5531L12.6965 23.4317L15.8784 20.25L12.6964 17.0677L14.8178 14.9465Z" fill="black"/>
</svg>
